<?xml version="1.0" encoding="UTF-8" standalone="no"?>
<svg xmlns="http://www.w3.org/2000/svg" viewBox="0 0 1600 700" width="1600" height="700">
  <text x="110" y="44" fill="#020E92" font-size="36" font-weight="800" font-family="Arial" letter-spacing="-0.5">Daily follower growth — May 2026</text>
<text x="110" y="74" fill="#4E56B3" font-size="20" font-weight="600" font-family="Arial">Each line shows % growth from day 1 · LinkedIn vs Instagram</text>
  
<g font-family="Arial">
  <rect x="1100" y="30" width="14" height="14" rx="2" fill="#4E56B3"/>
  <text x="1124" y="42" fill="#0A1240" font-size="22" font-weight="700">LinkedIn</text>
  <rect x="1240" y="30" width="14" height="14" rx="2" fill="#FF4DD7"/>
  <text x="1264" y="42" fill="#0A1240" font-size="22" font-weight="700">Instagram</text>
</g>
  <line x1="110" y1="90" x2="1380" y2="90" stroke="#020E92" stroke-opacity="0.12" stroke-width="1"/>
<text x="94" y="98" fill="#4E56B3" font-size="22" text-anchor="end" font-weight="600" font-family="Arial">5%</text>
<line x1="110" y1="190" x2="1380" y2="190" stroke="#020E92" stroke-opacity="0.12" stroke-width="1"/>
<text x="94" y="198" fill="#4E56B3" font-size="22" text-anchor="end" font-weight="600" font-family="Arial">3.8%</text>
<line x1="110" y1="290" x2="1380" y2="290" stroke="#020E92" stroke-opacity="0.12" stroke-width="1"/>
<text x="94" y="298" fill="#4E56B3" font-size="22" text-anchor="end" font-weight="600" font-family="Arial">2.6%</text>
<line x1="110" y1="390" x2="1380" y2="390" stroke="#020E92" stroke-opacity="0.12" stroke-width="1"/>
<text x="94" y="398" fill="#4E56B3" font-size="22" text-anchor="end" font-weight="600" font-family="Arial">1.4%</text>
<line x1="110" y1="490" x2="1380" y2="490" stroke="#020E92" stroke-opacity="0.12" stroke-width="1"/>
<text x="94" y="498" fill="#4E56B3" font-size="22" text-anchor="end" font-weight="600" font-family="Arial">0.2%</text>
<line x1="110" y1="590" x2="1380" y2="590" stroke="#020E92" stroke-opacity="0.12" stroke-width="1"/>
<text x="94" y="598" fill="#4E56B3" font-size="22" text-anchor="end" font-weight="600" font-family="Arial">-1%</text>

  <text x="110" y="626" fill="#4E56B3" font-size="22" text-anchor="middle" font-weight="700" font-family="Arial">1</text>
<text x="237" y="626" fill="#4E56B3" font-size="22" text-anchor="middle" font-weight="700" font-family="Arial">4</text>
<text x="364" y="626" fill="#4E56B3" font-size="22" text-anchor="middle" font-weight="700" font-family="Arial">7</text>
<text x="491" y="626" fill="#4E56B3" font-size="22" text-anchor="middle" font-weight="700" font-family="Arial">10</text>
<text x="618" y="626" fill="#4E56B3" font-size="22" text-anchor="middle" font-weight="700" font-family="Arial">13</text>
<text x="745" y="626" fill="#4E56B3" font-size="22" text-anchor="middle" font-weight="700" font-family="Arial">16</text>
<text x="872" y="626" fill="#4E56B3" font-size="22" text-anchor="middle" font-weight="700" font-family="Arial">19</text>
<text x="999" y="626" fill="#4E56B3" font-size="22" text-anchor="middle" font-weight="700" font-family="Arial">22</text>
<text x="1126" y="626" fill="#4E56B3" font-size="22" text-anchor="middle" font-weight="700" font-family="Arial">25</text>
<text x="1253" y="626" fill="#4E56B3" font-size="22" text-anchor="middle" font-weight="700" font-family="Arial">28</text>
<text x="1380" y="626" fill="#4E56B3" font-size="22" text-anchor="middle" font-weight="700" font-family="Arial">31</text>

  <text x="745" y="662" fill="#4E56B3" font-size="20" text-anchor="middle" font-weight="600" font-family="Arial" opacity="0.7">Day of month · May 2026</text>
  <path d="M 110.0,506.7 L 152.3,506.7 L 194.7,504.6 L 237.0,503.3 L 279.3,500.4 L 321.7,497.8 L 364.0,495.6 L 406.3,493.2 L 448.7,489.5 L 491.0,493.1 L 533.3,489.4 L 575.7,486.7 L 618.0,484.0 L 660.3,481.1 L 702.7,477.9 L 745.0,476.2 L 787.3,476.6 L 829.7,474.6 L 872.0,471.5 L 914.3,472.2 L 956.7,467.2 L 999.0,462.0 L 1041.3,461.8 L 1083.7,460.9 L 1126.0,456.9 L 1168.3,457.2 L 1210.7,455.6 L 1253.0,449.0 L 1295.3,446.7 L 1337.7,445.7 L 1380.0,445.7" fill="none" stroke="#4E56B3" stroke-width="5" stroke-linecap="round" stroke-linejoin="round"/>
<circle cx="1380" cy="445.65170035096213" r="9" fill="#4E56B3" stroke="#fff" stroke-width="3"/>
<text x="1398" y="453.65170035096213" fill="#4E56B3" font-size="24" font-weight="800" font-family="Arial">LinkedIn +0.7%</text>
<path d="M 110.0,506.7 L 152.3,387.8 L 194.7,402.7 L 237.0,402.7 L 279.3,462.1 L 321.7,462.1 L 364.0,462.1 L 406.3,462.1 L 448.7,462.1 L 491.0,462.1 L 533.3,432.4 L 575.7,491.8 L 618.0,462.1 L 660.3,521.5 L 702.7,462.1 L 745.0,521.5 L 787.3,462.1 L 829.7,491.8 L 872.0,491.8 L 914.3,447.2 L 956.7,447.2 L 999.0,402.7 L 1041.3,373.0 L 1083.7,313.6 L 1126.0,373.0 L 1168.3,313.6 L 1210.7,254.1 L 1253.0,283.9 L 1295.3,254.1 L 1337.7,224.4 L 1380.0,179.9" fill="none" stroke="#FF4DD7" stroke-width="5" stroke-linecap="round" stroke-linejoin="round"/>
<circle cx="1380" cy="179.86928104575162" r="9" fill="#FF4DD7" stroke="#fff" stroke-width="3"/>
<text x="1398" y="187.86928104575162" fill="#FF4DD7" font-size="24" font-weight="800" font-family="Arial">Instagram +3.9%</text>

</svg>